<?xml version="1.0" encoding="UTF-8"?>
<svg width="16px" height="16px" viewBox="0 0 88 88" version="1.1" xmlns="http://www.w3.org/2000/svg" xmlns:xlink="http://www.w3.org/1999/xlink">
    <!-- Generator: Sketch 48.1 (47250) - http://www.bohemiancoding.com/sketch -->
    <title>Icon-Dash</title>
    <desc>Created with Sketch.</desc>
    <defs></defs>
    <g id="Symbols" stroke="none" stroke-width="1" fill="none" fill-rule="evenodd">
        <g id="Icon-Dash" fill="#626263" fill-rule="nonzero">
            <path d="M28,0 L12,0 C5.37,0 0,5.37 0,12 L0,28 C0,34.63 5.37,40 12,40 L28,40 C34.63,40 40,34.63 40,28 L40,12 C40,5.37 34.63,0 28,0 Z M32,28 C32,30.21 30.21,32 28,32 L12,32 C9.79,32 8,30.21 8,28 L8,12 C8,9.79 9.79,8 12,8 L28,8 C30.21,8 32,9.79 32,12 L32,28 Z M76,0 L60,0 C53.37,0 48,5.37 48,12 L48,28 C48,34.63 53.37,40 60,40 L76,40 C82.63,40 88,34.63 88,28 L88,12 C88,5.37 82.63,0 76,0 Z M80,28 C80,30.21 78.21,32 76,32 L60,32 C57.79,32 56,30.21 56,28 L56,12 C56,9.79 57.79,8 60,8 L76,8 C78.21,8 80,9.79 80,12 L80,28 Z M76,48 L60,48 C53.37,48 48,53.37 48,60 L48,76 C48,82.63 53.37,88 60,88 L76,88 C82.63,88 88,82.63 88,76 L88,60 C88,53.37 82.63,48 76,48 Z M80,76 C80,78.21 78.21,80 76,80 L60,80 C57.79,80 56,78.21 56,76 L56,60 C56,57.79 57.79,56 60,56 L76,56 C78.21,56 80,57.79 80,60 L80,76 Z M28,48 L12,48 C5.37,48 0,53.37 0,60 L0,76 C0,82.63 5.37,88 12,88 L28,88 C34.63,88 40,82.63 40,76 L40,60 C40,53.37 34.63,48 28,48 Z M32,76 C32,78.21 30.21,80 28,80 L12,80 C9.79,80 8,78.21 8,76 L8,60 C8,57.79 9.79,56 12,56 L28,56 C30.21,56 32,57.79 32,60 L32,76 Z" id="Shape"></path>
        </g>
    </g>
</svg>