<?xml version="1.0" encoding="UTF-8"?>
<svg width="16px" height="16px" viewBox="0 0 88 88" version="1.1" xmlns="http://www.w3.org/2000/svg" xmlns:xlink="http://www.w3.org/1999/xlink">
    <!-- Generator: Sketch 48.1 (47250) - http://www.bohemiancoding.com/sketch -->
    <title>Icon-Heart</title>
    <desc>Created with Sketch.</desc>
    <defs></defs>
    <g id="Symbols" stroke="none" stroke-width="1" fill="none" fill-rule="evenodd">
        <g id="Icon-Heart" fill="#626263" fill-rule="nonzero">
            <path d="M81.0704681,13.002321 C72.2957447,4.20790123 58.0706383,4.20790123 49.2977872,13.002321 L44,18.3101235 L38.7031489,13.0041975 C29.9284255,4.20977778 15.7033191,4.20977778 6.93046809,13.0041975 C-1.84425532,21.797679 -1.84425532,36.054716 6.93046809,44.8491358 L12.2254468,50.1541235 L44,82 L75.7745532,50.1541235 L81.0695319,44.8491358 C89.8451915,36.054716 89.8451915,21.7967407 81.0704681,13.002321 Z M65.1827234,50.156 L44,71.3862716 L22.8172766,50.156 L12.2273191,39.5422716 C6.37812766,33.6799506 6.37812766,24.174321 12.2273191,18.3101235 C18.078383,12.4478025 27.5608511,12.4478025 33.4100426,18.3101235 L44,28.9257284 L54.5918298,18.3101235 C60.4410213,12.4478025 69.9253617,12.4478025 75.7745532,18.3101235 C81.6237447,24.174321 81.6237447,33.6780741 75.7745532,39.5422716 L65.1827234,50.156 Z" id="Shape"></path>
        </g>
    </g>
</svg>