<?xml version="1.0" encoding="UTF-8"?>
<svg width="16px" height="16px" viewBox="0 0 88 88" version="1.1" xmlns="http://www.w3.org/2000/svg" xmlns:xlink="http://www.w3.org/1999/xlink">
    <!-- Generator: Sketch 48.1 (47250) - http://www.bohemiancoding.com/sketch -->
    <title>Icon-Search</title>
    <desc>Created with Sketch.</desc>
    <defs></defs>
    <g id="Symbols" stroke="none" stroke-width="1" fill="none" fill-rule="evenodd">
        <g id="Icon-Search" fill="#626263" fill-rule="nonzero">
            <path d="M86.829,81.172 L64.128,58.471 C69.055,52.312 72,44.5 72,36 C72,16.118 55.883,0 36,0 C16.118,0 0,16.118 0,36 C0,55.882 16.118,72 36,72 C44.5,72 52.312,69.054 58.471,64.127 L81.172,86.828 C81.953,87.609 82.977,88 84,88 C85.024,88 86.048,87.609 86.829,86.828 C88.391,85.267 88.391,82.733 86.829,81.172 Z M36,64 C20.536,64 8,51.464 8,36 C8,20.536 20.536,8 36,8 C51.465,8 64,20.536 64,36 C64,51.464 51.465,64 36,64 Z" id="Shape"></path>
        </g>
    </g>
</svg>