<?xml version="1.0" encoding="UTF-8"?>
<svg width="16px" height="16px" viewBox="0 0 88 88" version="1.1" xmlns="http://www.w3.org/2000/svg" xmlns:xlink="http://www.w3.org/1999/xlink">
    <!-- Generator: Sketch 48.1 (47250) - http://www.bohemiancoding.com/sketch -->
    <title>Icon-Settings</title>
    <desc>Created with Sketch.</desc>
    <defs></defs>
    <g id="Symbols" stroke="none" stroke-width="1" fill="none" fill-rule="evenodd">
        <g id="Icon-Settings" fill="#626263" fill-rule="nonzero">
            <path d="M77,55 C83.07475,55 88,50.07475 88,44 C88,37.92525 83.07475,33 77,33 L75.12175,33 C74.73125,31.8963333 74.2848333,30.81925 73.7834167,29.7724167 L75.1125833,28.4441667 C79.4080833,24.14775 79.4080833,17.1838333 75.1125833,12.8874167 C70.8161667,8.59191667 63.85225,8.59191667 59.5558333,12.8874167 L58.2275833,14.2165833 C57.1798333,13.7151667 56.1036667,13.26875 55,12.87825 L55,11 C55,4.92525 50.07475,0 44,0 C37.92525,0 33,4.92525 33,11 L33,12.87825 C31.8963333,13.26875 30.81925,13.7151667 29.7724167,14.2165833 L28.4441667,12.8874167 C24.14775,8.59191667 17.1838333,8.59191667 12.8874167,12.8874167 C8.59191667,17.1838333 8.59191667,24.14775 12.8874167,28.4441667 L14.2165833,29.7724167 C13.7151667,30.8201667 13.26875,31.8963333 12.87825,33 L11,33 C4.92525,33 0,37.92525 0,44 C0,50.07475 4.92525,55 11,55 L12.87825,55 C13.26875,56.1036667 13.7151667,57.18075 14.2165833,58.2275833 L12.8874167,59.5558333 C8.59191667,63.85225 8.59191667,70.8161667 12.8874167,75.1125833 C17.1838333,79.4080833 24.14775,79.4080833 28.4441667,75.1125833 L29.7724167,73.7834167 C30.8201667,74.2848333 31.8963333,74.73125 33,75.12175 L33,77 C33,83.07475 37.92525,88 44,88 C50.07475,88 55,83.07475 55,77 L55,75.12175 C56.1036667,74.73125 57.18075,74.2848333 58.2275833,73.7834167 L59.5558333,75.1125833 C63.85225,79.4080833 70.8161667,79.4080833 75.1125833,75.1125833 C79.4080833,70.8161667 79.4080833,63.85225 75.1125833,59.5558333 L73.7834167,58.2275833 C74.2848333,57.1798333 74.73125,56.1036667 75.12175,55 L77,55 Z M69.40725,47.6666667 C68.7848333,52.0153333 67.0725,56.012 64.5571667,59.3715833 L69.7830833,64.5984167 L69.927,64.7414167 C71.3588333,66.17325 71.3588333,68.4960833 69.927,69.927 C68.4951667,71.3579167 66.17325,71.3588333 64.7414167,69.927 L64.5984167,69.7830833 L59.3715833,64.5571667 C56.012,67.0725 52.0153333,68.7848333 47.6666667,69.40725 L47.6666667,77 C47.6666667,79.0249167 46.0249167,80.6666667 44,80.6666667 C41.9750833,80.6666667 40.3333333,79.0249167 40.3333333,77 L40.3333333,69.40725 C35.9846667,68.7848333 31.988,67.0725 28.6284167,64.5571667 L23.4015833,69.7830833 L23.2585833,69.927 C21.82675,71.3588333 19.5039167,71.3588333 18.073,69.927 C16.6420833,68.4951667 16.6411667,66.17325 18.073,64.7414167 L18.2169167,64.5984167 L23.4428333,59.3715833 C20.9275,56.012 19.2151667,52.0153333 18.59275,47.6666667 L11,47.6666667 C8.97508333,47.6666667 7.33333333,46.0249167 7.33333333,44 C7.33333333,41.9750833 8.97508333,40.3333333 11,40.3333333 L18.59275,40.3333333 C19.2151667,35.9846667 20.9275,31.988 23.4428333,28.6284167 L18.2169167,23.4015833 L18.073,23.2585833 C16.6411667,21.82675 16.6411667,19.5039167 18.073,18.073 C19.5048333,16.6420833 21.82675,16.6411667 23.2585833,18.073 L23.4015833,18.2169167 L28.6284167,23.4428333 C31.988,20.9275 35.98375,19.2151667 40.3333333,18.59275 L40.3333333,11 C40.3333333,8.97508333 41.9750833,7.33333333 44,7.33333333 C46.0249167,7.33333333 47.6666667,8.97508333 47.6666667,11 L47.6666667,18.59275 C52.0153333,19.2151667 56.012,20.9275 59.3715833,23.4428333 L64.5984167,18.2169167 L64.7414167,18.073 C66.17325,16.6411667 68.4960833,16.6411667 69.927,18.073 C71.3579167,19.5048333 71.3588333,21.82675 69.927,23.2585833 L69.7830833,23.4015833 L64.5571667,28.6284167 C67.0725,31.988 68.7848333,35.98375 69.40725,40.3333333 L77,40.3333333 C79.0249167,40.3333333 80.6666667,41.9750833 80.6666667,44 C80.6666667,46.0249167 79.0249167,47.6666667 77,47.6666667 L69.40725,47.6666667 Z M44,29.3333333 C35.8994167,29.3333333 29.3333333,35.8994167 29.3333333,44 C29.3333333,52.1005833 35.8994167,58.6666667 44,58.6666667 C52.1005833,58.6666667 58.6666667,52.1005833 58.6666667,44 C58.6666667,35.8994167 52.1005833,29.3333333 44,29.3333333 Z M44,51.3333333 C39.9501667,51.3333333 36.6666667,48.0498333 36.6666667,44 C36.6666667,39.9501667 39.9501667,36.6666667 44,36.6666667 C48.0498333,36.6666667 51.3333333,39.9501667 51.3333333,44 C51.3333333,48.0498333 48.0498333,51.3333333 44,51.3333333 Z" id="Shape"></path>
        </g>
    </g>
</svg>