<?xml version="1.0" encoding="UTF-8"?>
<svg width="94px" height="30px" viewBox="0 0 94 30" version="1.1" xmlns="http://www.w3.org/2000/svg" xmlns:xlink="http://www.w3.org/1999/xlink">
    <!-- Generator: Sketch 48.1 (47250) - http://www.bohemiancoding.com/sketch -->
    <title>Logo</title>
    <desc>Created with Sketch.</desc>
    <defs>
        <path d="M15.5875437,3.99713195 L19.6710508,3.4066643 L22.8071286,11.1059587 C23.1446502,11.9616507 23.4317546,12.7814507 23.6684504,13.5653835 C23.9051461,14.3493163 24.1311146,15.0875082 24.3463628,15.7799812 L24.4430138,15.7660057 C24.453286,15.0409228 24.4608885,14.268957 24.4658216,13.4500851 C24.4707547,12.6312132 24.5138714,11.7636638 24.5951731,10.8474108 L25.4821956,2.56638341 L29.481133,1.98814438 L32.4649163,22.6231449 L29.5412219,23.0459058 L28.5541975,16.2199249 C28.4027948,15.1728666 28.2672852,14.1646391 28.1476646,13.1952121 C28.0280439,12.2257851 27.9258208,11.3340274 27.840992,10.5199122 C27.7561632,9.70579698 27.6890471,8.98574824 27.6396416,8.35974434 C27.5902361,7.73374045 27.5554381,7.23719504 27.5352466,6.87009322 L27.3057004,6.90328519 L26.1365483,20.8247382 L24.1552016,21.1112373 L19.0661978,8.09470216 L18.8366516,8.12789413 C18.9212774,8.48567886 19.0285629,8.9717427 19.1585114,9.58610023 C19.2884598,10.2004578 19.4280635,10.9100249 19.5773267,11.714823 C19.7265898,12.5196211 19.8811651,13.4038088 20.0410572,14.3674126 C20.2009493,15.3310164 20.3565944,16.3363324 20.5079971,17.3833908 L21.4950214,24.2093717 L18.5713269,24.6321325 L15.5875437,3.99713195 Z M43.6840355,22.5001674 C43.3511419,22.5227774 42.9880438,22.5209296 42.5947302,22.494624 C42.2014167,22.4683184 41.8081706,22.3828731 41.4149801,22.2382854 C41.0217897,22.0936977 40.6379886,21.8771038 40.2635653,21.5884972 C39.889142,21.2998907 39.5485652,20.9090706 39.2418246,20.4160252 C38.935084,19.9229798 38.6750189,19.3064608 38.4616214,18.5664497 C38.248224,17.8264386 38.1062338,16.9368076 38.0356465,15.8975301 L37.5351963,8.52925183 C37.4640575,7.48185497 37.4864818,6.58105704 37.6024697,5.82683102 C37.7184576,5.07260499 37.8972447,4.43239685 38.1388364,3.90618739 C38.380428,3.37997793 38.6676134,2.95467718 39.0004013,2.63027238 C39.3331891,2.30586758 39.6870356,2.05140804 40.0619515,1.86688611 C40.4368673,1.68236418 40.8134701,1.55278771 41.191771,1.47815281 C41.570072,1.40351791 41.9216043,1.35517193 42.2463785,1.33311341 C42.554914,1.31215781 42.8994681,1.31118674 43.2800512,1.33020016 C43.6606343,1.34921358 44.0447961,1.42100174 44.4325482,1.54556678 C44.8203003,1.67013183 45.2028606,1.86845742 45.5802407,2.14054953 C45.9576207,2.41264163 46.3015678,2.79303696 46.6120924,3.28174693 C46.9226169,3.77045691 47.1866038,4.38467038 47.4040609,5.12440577 C47.621518,5.86414116 47.7663652,6.76581312 47.8386069,7.82944869 L48.3390571,15.197727 C48.4090929,16.2288851 48.3840874,17.1217017 48.2640398,17.8762034 C48.1439922,18.6307052 47.963451,19.2751108 47.7224109,19.8094396 C47.4813707,20.3437684 47.1908149,20.779494 46.850735,21.1166293 C46.510655,21.4537645 46.1577735,21.7224328 45.7920799,21.9226419 C45.4263863,22.1228511 45.05873,22.264055 44.6890999,22.3462578 C44.3194698,22.4284606 43.9844517,22.4797632 43.6840355,22.5001674 Z M43.5227334,20.1252678 C43.8312689,20.1043122 44.0976489,20.0332013 44.3218816,19.911933 C44.5461142,19.7906646 44.7245084,19.5950227 44.8570697,19.3250013 C44.9896309,19.0549798 45.0800013,18.7042218 45.1281833,18.2727168 C45.1763654,17.8412117 45.1783979,17.300693 45.1342808,16.6511446 L44.4915538,7.18808308 C44.4463339,6.52229593 44.3699928,5.96874783 44.2625285,5.52742217 C44.1550641,5.08609652 44.016993,4.73454079 43.8483109,4.47274445 C43.6796288,4.21094811 43.4757298,4.0310755 43.2366077,3.93312122 C42.9974855,3.83516694 42.7236608,3.79666817 42.4151253,3.81762377 C42.0984705,3.83913083 41.8262767,3.91471493 41.5985359,4.04437833 C41.370795,4.17404174 41.1890305,4.38010846 41.0532367,4.66258466 C40.917443,4.94506087 40.8261458,5.3121952 40.7793424,5.76399865 C40.732539,6.2158021 40.7317473,6.77458902 40.7769673,7.44037617 L41.4196942,16.9034377 C41.4638113,17.5529861 41.5389115,18.088266 41.6449972,18.5092932 C41.7510829,18.9303205 41.890081,19.2654999 42.0619955,19.5148415 C42.2339101,19.764183 42.4411794,19.9336309 42.6838098,20.0231901 C42.9264401,20.1127493 43.2060785,20.1467748 43.5227334,20.1252678 Z M52.8403069,1.2186596 L56.0745368,1.15464868 L58.6958273,17.6221166 L58.8300784,17.6194596 L60.8099376,1.06092704 L64.0319628,0.997157669 L60.6488879,21.917807 L57.0363141,21.989306 L52.8403069,1.2186596 Z M69.9073716,1.2751809 L73.0682629,1.34310872 L72.6203064,22.1879053 L69.4594151,22.1199775 L69.9073716,1.2751809 Z M80.2283989,1.69578071 L83.386017,1.85482626 L82.4624475,20.1909564 L86.7660738,20.4077251 L86.6408024,22.8948066 L79.1795579,22.5189924 L80.2283989,1.69578071 Z M93.5125095,2.70234135 L96.9285434,3.0134977 C97.3175599,3.04893205 97.74359,3.10408112 98.2066465,3.17894656 C98.6697029,3.253812 99.1285078,3.37527655 99.5830748,3.54334386 C100.037642,3.71141116 100.470272,3.94080855 100.880979,4.2315429 C101.291685,4.52227725 101.64527,4.90177848 101.941744,5.37005797 C102.238217,5.83833746 102.457675,6.41195508 102.600123,7.09092804 C102.742571,7.769901 102.770978,8.57943692 102.685345,9.51956009 L102.63773,10.0422984 C102.493778,11.6226778 102.149666,12.8885798 101.605382,13.8400422 C101.061098,14.7915046 100.327339,15.445815 99.4040837,15.802993 L101.978723,24.4094272 L98.6477855,24.106022 L96.5957898,16.0865268 L95.4165895,15.979117 L94.7090133,23.747251 L91.6212105,23.4659923 L93.5125095,2.70234135 Z M96.0977694,13.7489987 C96.6488761,13.7991974 97.120415,13.7808612 97.5124002,13.6939897 C97.9043854,13.6071182 98.2309918,13.4305341 98.4922293,13.1642323 C98.7534667,12.8979304 98.9583545,12.5325265 99.1068988,12.0680094 C99.255443,11.6034924 99.3614568,11.0227487 99.4249434,10.3257608 L99.5744313,8.68460573 C99.6231535,8.14970806 99.6166048,7.68332869 99.5547851,7.28545362 C99.4929653,6.88757855 99.3580105,6.55250657 99.1499167,6.28022761 C98.9418228,6.00794865 98.6528609,5.79368049 98.2830221,5.63741671 C97.9131834,5.48115292 97.440561,5.37681593 96.8651408,5.32440262 L96.3910293,5.28121722 L95.623658,13.7058133 L96.0977694,13.7489987 Z" id="path-1"></path>
        <filter x="-6.3%" y="-14.8%" width="112.6%" height="146.5%" filterUnits="objectBoundingBox" id="filter-2">
            <feOffset dx="0" dy="2" in="SourceAlpha" result="shadowOffsetOuter1"></feOffset>
            <feGaussianBlur stdDeviation="1.5" in="shadowOffsetOuter1" result="shadowBlurOuter1"></feGaussianBlur>
            <feColorMatrix values="0 0 0 0 0   0 0 0 0 0   0 0 0 0 0  0 0 0 0.3 0" type="matrix" in="shadowBlurOuter1"></feColorMatrix>
        </filter>
    </defs>
    <g id="Movilr" stroke="none" stroke-width="1" fill="none" fill-rule="evenodd" transform="translate(-57.000000, -27.000000)">
        <g id="Logo" transform="translate(45.000000, 27.000000)">
            <path d="M0,28.1240652 C0,28.1240652 21.6478662,22 60.0182678,22 C98.3886695,22 120.036536,28.0626963 120.036536,28.0626963" id="Path-2"></path>
            <g id="MOVILR">
                <use fill="black" fill-opacity="1" filter="url(#filter-2)" xlink:href="#path-1"></use>
                <use fill="#FFFFFF" fill-rule="evenodd" xlink:href="#path-1"></use>
            </g>
        </g>
    </g>
</svg>